{"accessors":[{"bufferView":0,"componentType":5121,"count":36,"max":[23],"min":[0],"type":"SCALAR"},{"bufferView":1,"componentType":5126,"count":24,"max":[1.0,1.0,1.0],"min":[-1.0,-1.0,-1.0],"type":"VEC3"},{"bufferView":2,"componentType":5126,"count":24,"max":[1.0,1.0,1.0],"min":[-1.0,-1.0,-1.0],"type":"VEC3"},{"bufferView":3,"componentType":5126,"count":24,"max":[0.875,1.0],"min":[0.125,0.0],"type":"VEC2"},{"bufferView":4,"componentType":5123,"count":2880,"max":[1983],"min":[0],"type":"SCALAR"},{"bufferView":5,"componentType":5126,"count":1984,"max":[0.9999997019767761,1.0,0.9999993443489075],"min":[-0.9999990463256836,-1.0,-1.0],"type":"VEC3"},{"bufferView":6,"componentType":5126,"count":1984,"max":[0.9904384613037109,0.9951385855674744,0.9904386401176453],"min":[-0.9904386401176453,-0.9951384663581848,-0.9904382824897766],"type":"VEC3"},{"bufferView":7,"componentType":5126,"count":1984,"max":[1.0,1.0],"min":[0.0,0.0],"type":"VEC2"},{"bufferView":8,"componentType":5126,"count":11,"max":[0.875],"min":[0.4583333432674408],"type":"SCALAR"},{"bufferView":9,"componentType":5126,"count":11,"max":[0.0,2.139195203781128,-0.0],"min":[0.0,0.9880504012107849,-0.0],"type":"VEC3"},{"bufferView":10,"componentType":5126,"count":11,"max":[0.875],"min":[0.4583333432674408],"type":"SCALAR"},{"bufferView":11,"componentType":5126,"count":11,"max":[0.0,0.0,-0.0,1.0],"min":[0.0,0.0,-0.0,1.0],"type":"VEC4"},{"bufferView":12,"componentType":5126,"count":11,"max":[0.875],"min":[0.4583333432674408],"type":"SCALAR"},{"bufferView":13,"componentType":5126,"count":11,"max":[0.6921643614768982,1.0,-0.043775320053100586],"min":[0.6921643614768982,1.0,-0.043775320053100586],"type":"VEC3"},{"bufferView":14,"componentType":5126,"count":31,"max":[1.25],"min":[0.0],"type":"SCALAR"},{"bufferView":15,"componentType":5126,"count":31,"max":[0.0,0.43133842945098877,2.2951643466949463],"min":[0.0,0.43133842945098877,-1.9326646327972412],"type":"VEC3"},{"bufferView":16,"componentType":5126,"count":31,"max":[1.25],"min":[0.0],"type":"SCALAR"},{"bufferView":17,"componentType":5126,"count":31,"max":[0.0,0.0,-0.0,1.0],"min":[0.0,0.0,-0.0,1.0],"type":"VEC4"},{"bufferView":18,"componentType":5126,"count":31,"max":[1.25],"min":[0.0],"type":"SCALAR"},{"bufferView":19,"componentType":5126,"count":31,"max":[0.4228482246398926,0.4228482246398926,0.4228482246398926],"min":[0.4228482246398926,0.4228482246398926,0.4228482246398926],"type":"VEC3"}],"animations":[{"channels":[{"sampler":0,"target":{"node":0,"path":"translation"}},{"sampler":1,"target":{"node":0,"path":"rotation"}},{"sampler":2,"target":{"node":0,"path":"scale"}}],"extensions":{"S8S_v3d_animation":{"auto":true,"loop":"REPEAT","offset":0.0,"repeatCount":1.0,"repeatInfinite":true}},"name":"Cube","samplers":[{"input":8,"interpolation":"LINEAR","output":9},{"input":10,"interpolation":"LINEAR","output":11},{"input":12,"interpolation":"LINEAR","output":13}]},{"channels":[{"sampler":0,"target":{"node":3,"path":"translation"}},{"sampler":1,"target":{"node":3,"path":"rotation"}},{"sampler":2,"target":{"node":3,"path":"scale"}}],"extensions":{"S8S_v3d_animation":{"auto":true,"loop":"REPEAT","offset":0.0,"repeatCount":1.0,"repeatInfinite":true}},"name":"Sphere","samplers":[{"input":14,"interpolation":"LINEAR","output":15},{"input":16,"interpolation":"LINEAR","output":17},{"input":18,"interpolation":"LINEAR","output":19}]}],"asset":{"generator":"Verge3D for Blender v4.10.0","version":"2.0"},"bufferViews":[{"buffer":0,"byteLength":36,"byteOffset":0,"target":34963},{"buffer":0,"byteLength":288,"byteOffset":36,"target":34962},{"buffer":0,"byteLength":288,"byteOffset":324,"target":34962},{"buffer":0,"byteLength":192,"byteOffset":612,"target":34962},{"buffer":0,"byteLength":5760,"byteOffset":804,"target":34963},{"buffer":0,"byteLength":23808,"byteOffset":6564,"target":34962},{"buffer":0,"byteLength":23808,"byteOffset":30372,"target":34962},{"buffer":0,"byteLength":15872,"byteOffset":54180,"target":34962},{"buffer":0,"byteLength":44,"byteOffset":70052},{"buffer":0,"byteLength":132,"byteOffset":70096},{"buffer":0,"byteLength":44,"byteOffset":70228},{"buffer":0,"byteLength":176,"byteOffset":70272},{"buffer":0,"byteLength":44,"byteOffset":70448},{"buffer":0,"byteLength":132,"byteOffset":70492},{"buffer":0,"byteLength":124,"byteOffset":70624},{"buffer":0,"byteLength":372,"byteOffset":70748},{"buffer":0,"byteLength":124,"byteOffset":71120},{"buffer":0,"byteLength":496,"byteOffset":71244},{"buffer":0,"byteLength":124,"byteOffset":71740},{"buffer":0,"byteLength":372,"byteOffset":71864}],"buffers":[{"byteLength":72236,"uri":"AnimarBalon.bin"}],"cameras":[{"extensions":{"S8S_v3d_camera":{"controls":"ORBIT","enablePan":true,"moveSpeed":1.0,"orbitMaxDistance":99.0,"orbitMaxPolarAngle":3.1415927410125732,"orbitMaxZoom":100.0,"orbitMinDistance":0.0,"orbitMinPolarAngle":0.0,"orbitMinZoom":0.009999999776482582,"orbitTarget":[0.0,0.0,-0.0],"rotateSpeed":1.0,"viewportFitInitialAspect":1.7777777777777777,"viewportFitType":"AUTO"}},"name":"Camera","perspective":{"aspectRatio":1.7777777777777777,"yfov":0.5033799372418416,"zfar":100.0,"znear":0.10000000149011612},"type":"perspective"}],"extensions":{"S8S_v3d_lights":{"lights":[{"color":[1.0,1.0,1.0],"decay":2,"distance":10.00000011175871,"intensity":100.0,"name":"Lamp","power":100.0,"profile":"blender","shadow":{"bias":-0.0018,"cameraFar":10.00000011175871,"cameraFov":0,"cameraNear":1.0007989406585693,"enabled":true,"expBias":2.5,"mapSize":512,"radius":1.0,"slopeScaledBias":2.5},"type":"point"}]}},"extensionsUsed":["S8S_v3d_texture","S8S_v3d_materials","S8S_v3d_camera","S8S_v3d_lights","S8S_v3d_mesh","S8S_v3d_node","S8S_v3d_animation","S8S_v3d_scene"],"images":[{"uri":"environment.hdr"}],"materials":[{"alphaMode":"OPAQUE","extensions":{"S8S_v3d_materials":{"gtaoVisible":true,"materialIndex":0,"nodeGraph":{"edges":[{"fromNode":0,"fromOutput":0,"toInput":0,"toNode":1}],"nodes":[{"inputs":[[0.0824952945113182,0.01870688609778881,0.8000785112380981,1.0],0.0,0.5,1.4500000476837158,1.0,[0.0,0.0,0.0],0.0,[1.0,0.20000000298023224,0.10000000149011612],0.05000000074505806,1.399999976158142,0.0,0.5,[1.0,1.0,1.0,1.0],0.0,0.0,[0.0,0.0,0.0],0.0,0.0,0.029999999329447746,1.5,[1.0,1.0,1.0,1.0],[0.0,0.0,0.0],0.0,0.5,[1.0,1.0,1.0,1.0],[1.0,1.0,1.0,1.0],0.0],"is_active_output":false,"name":"Principled BSDF","outputs":[[0,0,0,0]],"type":"BSDF_PRINCIPLED_BL"},{"inputs":[[0,0,0,0],[0,0,0,0],[0.0,0.0,0.0],0.0],"is_active_output":true,"name":"Material Output","outputs":[],"type":"OUTPUT_MATERIAL_BL"}]},"useCastShadows":true}},"name":"Material"},{"alphaMode":"OPAQUE","extensions":{"S8S_v3d_materials":{"gtaoVisible":true,"materialIndex":0,"nodeGraph":{"edges":[{"fromNode":0,"fromOutput":0,"toInput":0,"toNode":1}],"nodes":[{"inputs":[[0.800070583820343,0.058549270033836365,0.03562486544251442,1.0],0.0,0.5,1.4500000476837158,1.0,[0.0,0.0,0.0],0.0,[1.0,0.20000000298023224,0.10000000149011612],0.05000000074505806,1.399999976158142,0.0,0.5,[1.0,1.0,1.0,1.0],0.0,0.0,[0.0,0.0,0.0],0.0,0.0,0.029999999329447746,1.5,[1.0,1.0,1.0,1.0],[0.0,0.0,0.0],0.0,0.5,[1.0,1.0,1.0,1.0],[1.0,1.0,1.0,1.0],0.0],"is_active_output":false,"name":"Principled BSDF","outputs":[[0,0,0,0]],"type":"BSDF_PRINCIPLED_BL"},{"inputs":[[0,0,0,0],[0,0,0,0],[0.0,0.0,0.0],0.0],"is_active_output":true,"name":"Material Output","outputs":[],"type":"OUTPUT_MATERIAL_BL"}]},"useCastShadows":true}},"name":"Material.001"},{"alphaMode":"OPAQUE","extensions":{"S8S_v3d_materials":{"gtaoVisible":true,"materialIndex":0,"nodeGraph":{"edges":[{"fromNode":0,"fromOutput":0,"toInput":0,"toNode":1},{"fromNode":4,"fromOutput":0,"toInput":6,"toNode":2},{"fromNode":3,"fromOutput":0,"toInput":0,"toNode":2},{"fromNode":2,"fromOutput":2,"toInput":0,"toNode":0}],"nodes":[{"inputs":[[0.05087608844041824,0.05087608844041824,0.05087608844041824,1.0],1.0],"is_active_output":false,"name":"Background","outputs":[[0,0,0,0]],"type":"BACKGROUND_BL"},{"inputs":[[0,0,0,0],[0,0,0,0]],"is_active_output":true,"name":"World Output","outputs":[],"type":"OUTPUT_WORLD_BL"},{"blendType":"MIX","clampFactor":true,"clampResult":false,"dataType":"RGBA","factorMode":"UNIFORM","inputs":[0.5,[0.5,0.5,0.5],0.0,0.0,[0.0,0.0,0.0],[0.0,0.0,0.0],[0.5,0.5,0.5,1.0],[0.05126946419477463,0.05126946419477463,0.05126946419477463,1.0],0,0],"is_active_output":false,"name":"Mix","outputs":[0.0,[0.0,0.0,0.0],[0.0,0.0,0.0,0.0],0],"type":"MIX_BL"},{"inputs":[],"is_active_output":false,"name":"Light Path","outputs":[0.0,0.0,0.0,0.0,0.0,0.0,0.0,0.0,0.0,0.0,0.0,0.0,0.0],"type":"LIGHT_PATH_BL"},{"inputs":[[0.0,0.0,0.0]],"is_active_output":false,"name":"Environment Texture","outputs":[[0.0,0.0,0.0,0.0]],"projection":"EQUIRECTANGULAR","texture":0,"type":"TEX_ENVIRONMENT_BL"}]},"useCastShadows":true}},"name":"Verge3D_Environment_World"}],"meshes":[{"extensions":{"S8S_v3d_mesh":{"colorLayers":{},"uvLayers":{"UVMap":"TEXCOORD_0"}}},"name":"Cube.001","primitives":[{"attributes":{"NORMAL":2,"POSITION":1,"TEXCOORD_0":3},"indices":0,"material":1,"mode":4}]},{"extensions":{"S8S_v3d_mesh":{"colorLayers":{},"uvLayers":{"UVMap":"TEXCOORD_0"}}},"name":"Sphere","primitives":[{"attributes":{"NORMAL":6,"POSITION":5,"TEXCOORD_0":7},"indices":4,"material":0,"mode":4}]}],"nodes":[{"extensions":{"S8S_v3d_node":{"frustumCulling":true,"groupNames":[],"hidden":false,"hidpiCompositing":false,"objectColor":[1.0,1.0,1.0,1.0],"objectIndex":0,"renderOrder":0,"useShadows":true}},"mesh":0,"name":"Cube","rotation":[-0.0,-0.0,-1.0,0.0],"scale":[-0.6921643614768982,-1.0,-0.043775320053100586],"translation":[0.0,0.9880504012107849,-0.0]},{"camera":0,"extensions":{"S8S_v3d_node":{"frustumCulling":true,"groupNames":["Collection 1"],"hidden":false,"hidpiCompositing":false,"objectColor":[0.0,0.0,0.0,0.0],"objectIndex":0,"renderOrder":0}},"name":"Camera","rotation":[-0.20997299253940582,0.3857799470424652,0.09062844514846802,0.8937962055206299],"scale":[1.0,0.9999998807907104,0.9999998807907104],"translation":[7.226052284240723,5.1113457679748535,6.946681022644043]},{"extensions":{"S8S_v3d_lights":{"light":0},"S8S_v3d_node":{"frustumCulling":true,"groupNames":["Collection 1"],"hidden":false,"hidpiCompositing":false,"objectColor":[0.0,0.0,0.0,0.0],"objectIndex":0,"renderOrder":0}},"name":"Lamp","rotation":[-0.28416627645492554,0.7269423007965088,0.34203392267227173,0.5232754945755005],"scale":[1.0,0.9999998807907104,0.9999998807907104],"translation":[4.076245307922363,5.903861999511719,-1.0054539442062378]},{"extensions":{"S8S_v3d_node":{"frustumCulling":true,"groupNames":[],"hidden":false,"hidpiCompositing":false,"objectColor":[1.0,1.0,1.0,1.0],"objectIndex":0,"renderOrder":0,"useShadows":true}},"mesh":1,"name":"Sphere","scale":[0.4228482246398926,0.4228482246398926,0.4228482246398926],"translation":[0.0,0.43133842945098877,2.2951643466949463]}],"samplers":[{}],"scene":0,"scenes":[{"extensions":{"S8S_v3d_scene":{"aaMethod":"AUTO","iblEnvironmentMode":"PMREM","physicallyCorrectLights":true,"pmremMaxTileSize":256,"shadowMap":{"esmDistanceScale":1.0,"renderReverseSided":false,"renderSingleSided":true,"type":"PCFPOISSON"},"worldMaterial":2}},"extras":{"animFrameRate":24,"coordSystem":"Z_UP_RIGHT"},"name":"Scene","nodes":[0,3,2,1]}],"textures":[{"extensions":{"S8S_v3d_texture":{"colorSpace":"linear rec.709","source":0}},"name":"environment.hdr","sampler":0}]}
